<svg xmlns="http://www.w3.org/2000/svg" xmlns:xlink="http://www.w3.org/1999/xlink" width="2000" zoomAndPan="magnify" viewBox="0 0 1500 1499.999933" height="2000" preserveAspectRatio="xMidYMid meet" version="1.0"><defs><g/></defs><g fill="#6a2500" fill-opacity="1"><g transform="translate(553.149951, 720.209918)"><g><path d="M 149.460938 -237.703125 C 161.210938 -237.703125 171.902344 -234.800781 181.53125 -228.996094 C 190.996094 -223.292969 198.515625 -215.707031 204.097656 -206.234375 C 209.753906 -196.628906 212.582031 -186.078125 212.582031 -174.582031 C 212.582031 -163.289062 209.804688 -152.945312 204.242188 -143.546875 C 198.796875 -134.339844 191.480469 -126.890625 182.292969 -121.199219 C 172.84375 -115.339844 162.21875 -112.414062 150.414062 -112.414062 L 150.414062 -124.339844 L 162.339844 -124.390625 L 162.65625 -50.296875 C 162.65625 -38.75 159.765625 -28.113281 153.984375 -18.390625 C 148.300781 -8.832031 140.734375 -1.203125 131.289062 4.488281 C 121.65625 10.292969 111.074219 13.195312 99.535156 13.195312 C 88.179688 13.195312 77.734375 10.28125 68.195312 4.453125 C 58.84375 -1.261719 51.386719 -8.910156 45.816406 -18.496094 C 40.183594 -28.191406 37.363281 -38.773438 37.363281 -50.242188 L 37.363281 -124.339844 L 49.289062 -124.339844 L 49.289062 -112.414062 C 37.726562 -112.414062 27.171875 -115.328125 17.632812 -121.160156 C 8.3125 -126.855469 0.921875 -134.316406 -4.539062 -143.546875 C -10.097656 -152.945312 -12.878906 -163.289062 -12.878906 -174.582031 C -12.878906 -186.035156 -10.125 -196.550781 -4.613281 -206.128906 C 0.851562 -215.625 8.265625 -223.238281 17.632812 -228.960938 C 27.171875 -234.789062 37.726562 -237.703125 49.289062 -237.703125 Z M 149.460938 -213.855469 L 49.289062 -213.855469 C 42.199219 -213.855469 35.792969 -212.105469 30.066406 -208.609375 C 24.167969 -205.003906 19.5 -200.210938 16.058594 -194.234375 C 12.667969 -188.335938 10.972656 -181.785156 10.972656 -174.582031 C 10.972656 -167.640625 12.644531 -161.34375 15.988281 -155.691406 C 19.433594 -149.867188 24.125 -145.140625 30.066406 -141.507812 C 35.792969 -138.011719 42.199219 -136.261719 49.289062 -136.261719 L 61.214844 -136.261719 L 61.214844 -50.242188 C 61.214844 -43.058594 62.957031 -36.46875 66.4375 -30.476562 C 69.984375 -24.375 74.714844 -19.515625 80.628906 -15.898438 C 86.355469 -12.402344 92.65625 -10.652344 99.535156 -10.652344 C 106.652344 -10.652344 113.132812 -12.414062 118.976562 -15.9375 C 125.003906 -19.570312 129.84375 -24.453125 133.484375 -30.582031 C 137.035156 -36.546875 138.808594 -43.082031 138.808594 -50.191406 L 138.4375 -136.261719 L 150.414062 -136.261719 C 157.691406 -136.261719 164.128906 -138 169.730469 -141.46875 C 175.597656 -145.105469 180.257812 -149.84375 183.714844 -155.691406 C 187.0625 -161.34375 188.734375 -167.640625 188.734375 -174.582031 C 188.734375 -181.742188 187.003906 -188.257812 183.546875 -194.128906 C 180.011719 -200.132812 175.234375 -204.945312 169.222656 -208.570312 C 163.375 -212.09375 156.789062 -213.855469 149.460938 -213.855469 Z M 149.460938 -213.855469 "/></g></g></g><g fill="#6a2500" fill-opacity="1"><g transform="translate(758.577603, 720.209918)"><g><path d="M -12.242188 -175.535156 C -12.242188 -195.09375 -6.875 -210.378906 3.867188 -221.386719 C 14.6875 -232.476562 29.828125 -238.023438 49.289062 -238.023438 L 132.925781 -238.023438 C 144.472656 -238.023438 154.957031 -235.167969 164.382812 -229.460938 C 173.601562 -223.878906 180.996094 -216.421875 186.570312 -207.089844 C 192.25 -197.574219 195.09375 -187.058594 195.09375 -175.535156 C 195.09375 -161.878906 190.914062 -149.433594 182.558594 -138.207031 C 174.203125 -126.980469 163.464844 -119.394531 150.34375 -115.460938 L 149.898438 -115.328125 L 149.449219 -115.230469 C 143.738281 -113.988281 137.699219 -113.367188 131.335938 -113.367188 L 131.335938 -125.292969 L 135.105469 -113.980469 C 136.695312 -114.507812 138.066406 -115.492188 139.214844 -116.929688 C 140.640625 -118.707031 141.351562 -120.703125 141.351562 -122.90625 C 141.351562 -125.820312 140.222656 -128.3125 137.960938 -130.386719 C 136 -132.183594 133.789062 -133.082031 131.335938 -133.082031 L 132.230469 -133.082031 L 133.113281 -132.949219 C 142.335938 -131.558594 151.183594 -132.417969 159.65625 -135.53125 L 170.683594 -139.582031 L 174.898438 -128.617188 C 176.175781 -125.296875 177.25 -121.648438 178.121094 -117.664062 C 179.046875 -113.433594 179.511719 -109.085938 179.511719 -104.621094 C 179.511719 -93.3125 176.667969 -82.902344 170.988281 -73.386719 C 165.402344 -64.03125 157.929688 -56.5625 148.578125 -50.976562 C 139.0625 -45.292969 128.546875 -42.453125 117.023438 -42.453125 L 100.488281 -42.453125 L 100.488281 -54.378906 L 112.414062 -54.378906 L 112.414062 -48.972656 C 112.414062 -37.664062 109.570312 -27.25 103.890625 -17.734375 C 98.304688 -8.382812 90.832031 -0.914062 81.480469 4.671875 C 71.964844 10.355469 61.554688 13.195312 50.242188 13.195312 C 38.960938 13.195312 28.515625 10.367188 18.910156 4.710938 C 9.421875 -0.878906 1.878906 -8.359375 -3.71875 -17.734375 C -9.402344 -27.25 -12.242188 -37.664062 -12.242188 -48.972656 Z M 11.605469 -175.535156 L 11.605469 -48.972656 C 11.605469 -42.050781 13.324219 -35.714844 16.757812 -29.964844 C 20.273438 -24.074219 25.027344 -19.367188 31.015625 -15.839844 C 36.886719 -12.382812 43.296875 -10.652344 50.242188 -10.652344 C 57.167969 -10.652344 63.503906 -12.371094 69.25 -15.804688 C 75.164062 -19.332031 79.882812 -24.054688 83.414062 -29.964844 C 86.847656 -35.714844 88.5625 -42.050781 88.5625 -48.972656 L 88.5625 -66.304688 L 117.023438 -66.304688 C 124.160156 -66.304688 130.601562 -68.019531 136.347656 -71.453125 C 142.261719 -74.984375 146.980469 -79.703125 150.511719 -85.613281 C 153.945312 -91.363281 155.660156 -97.699219 155.660156 -104.621094 C 155.660156 -107.367188 155.382812 -110.015625 154.824219 -112.566406 C 154.210938 -115.367188 153.484375 -117.867188 152.640625 -120.058594 L 163.769531 -124.339844 L 167.882812 -113.144531 C 155.582031 -108.625 142.804688 -107.367188 129.554688 -109.367188 L 131.335938 -121.15625 L 131.335938 -109.234375 C 127.605469 -109.234375 124.441406 -110.421875 121.84375 -112.804688 C 118.949219 -115.460938 117.5 -118.828125 117.5 -122.90625 C 117.5 -126.277344 118.53125 -129.253906 120.589844 -131.828125 C 122.375 -134.058594 124.699219 -135.652344 127.5625 -136.605469 L 129.398438 -137.21875 L 131.335938 -137.21875 C 135.992188 -137.21875 140.339844 -137.65625 144.382812 -138.535156 L 146.914062 -126.882812 L 143.488281 -138.304688 C 151.566406 -140.726562 158.214844 -145.441406 163.425781 -152.445312 C 168.636719 -159.449219 171.242188 -167.144531 171.242188 -175.535156 C 171.242188 -182.671875 169.527344 -189.113281 166.09375 -194.863281 C 162.550781 -200.792969 157.859375 -205.527344 152.027344 -209.0625 C 146.398438 -212.46875 140.03125 -214.171875 132.925781 -214.171875 L 49.289062 -214.171875 C 36.527344 -214.171875 27.078125 -211.027344 20.9375 -204.734375 C 14.71875 -198.355469 11.605469 -188.625 11.605469 -175.535156 Z M 11.605469 -175.535156 "/></g></g></g><g fill="#d45715" fill-opacity="1"><g transform="translate(553.149951, 720.209918)"><g><path d="M 149.453125 -225.78125 C 158.992188 -225.78125 167.632812 -223.445312 175.375 -218.78125 C 183.113281 -214.113281 189.257812 -207.910156 193.8125 -200.171875 C 198.375 -192.441406 200.65625 -183.910156 200.65625 -174.578125 C 200.65625 -165.460938 198.425781 -157.140625 193.96875 -149.609375 C 189.519531 -142.085938 183.53125 -135.992188 176 -131.328125 C 168.476562 -126.671875 159.945312 -124.34375 150.40625 -124.34375 L 150.734375 -50.25 C 150.734375 -40.914062 148.398438 -32.328125 143.734375 -24.484375 C 139.066406 -16.640625 132.863281 -10.382812 125.125 -5.71875 C 117.394531 -1.0625 108.863281 1.265625 99.53125 1.265625 C 90.414062 1.265625 82.039062 -1.0625 74.40625 -5.71875 C 66.78125 -10.382812 60.6875 -16.640625 56.125 -24.484375 C 51.570312 -32.328125 49.296875 -40.914062 49.296875 -50.25 L 49.296875 -124.34375 C 39.960938 -124.34375 31.476562 -126.671875 23.84375 -131.328125 C 16.21875 -135.992188 10.175781 -142.085938 5.71875 -149.609375 C 1.269531 -157.140625 -0.953125 -165.460938 -0.953125 -174.578125 C -0.953125 -183.910156 1.269531 -192.441406 5.71875 -200.171875 C 10.175781 -207.910156 16.21875 -214.113281 23.84375 -218.78125 C 31.476562 -223.445312 39.960938 -225.78125 49.296875 -225.78125 Z M 149.453125 -225.78125 "/></g></g></g><g fill="#d45715" fill-opacity="1"><g transform="translate(758.577603, 720.209918)"><g><path d="M -0.3125 -175.53125 C -0.3125 -191.851562 3.925781 -204.359375 12.40625 -213.046875 C 20.882812 -221.742188 33.179688 -226.09375 49.296875 -226.09375 L 132.921875 -226.09375 C 142.253906 -226.09375 150.679688 -223.8125 158.203125 -219.25 C 165.734375 -214.695312 171.773438 -208.601562 176.328125 -200.96875 C 180.890625 -193.34375 183.171875 -184.863281 183.171875 -175.53125 C 183.171875 -164.507812 179.773438 -154.441406 172.984375 -145.328125 C 166.203125 -136.210938 157.515625 -130.0625 146.921875 -126.875 C 142.046875 -125.820312 136.847656 -125.296875 131.328125 -125.296875 C 130.054688 -124.867188 129.421875 -124.070312 129.421875 -122.90625 C 129.421875 -121.738281 130.054688 -121.15625 131.328125 -121.15625 C 142.566406 -119.457031 153.378906 -120.519531 163.765625 -124.34375 C 164.828125 -121.582031 165.726562 -118.503906 166.46875 -115.109375 C 167.21875 -111.722656 167.59375 -108.226562 167.59375 -104.625 C 167.59375 -95.507812 165.3125 -87.132812 160.75 -79.5 C 156.1875 -71.863281 150.085938 -65.765625 142.453125 -61.203125 C 134.828125 -56.648438 126.351562 -54.375 117.03125 -54.375 L 100.484375 -54.375 L 100.484375 -48.96875 C 100.484375 -39.851562 98.203125 -31.476562 93.640625 -23.84375 C 89.085938 -16.21875 82.992188 -10.125 75.359375 -5.5625 C 67.734375 -1.007812 59.363281 1.265625 50.25 1.265625 C 41.125 1.265625 32.691406 -1.007812 24.953125 -5.5625 C 17.222656 -10.125 11.078125 -16.21875 6.515625 -23.84375 C 1.960938 -31.476562 -0.3125 -39.851562 -0.3125 -48.96875 Z M -0.3125 -175.53125 "/></g></g></g></svg>