<svg xmlns="http://www.w3.org/2000/svg" xmlns:xlink="http://www.w3.org/1999/xlink" width="2000" zoomAndPan="magnify" viewBox="0 0 1500 1499.999933" height="2000" preserveAspectRatio="xMidYMid meet" version="1.0"><defs><g/></defs><g fill="#6a2500" fill-opacity="1"><g transform="translate(553.053036, 419.602972)"><g><path d="M 149.53125 -237.816406 C 161.285156 -237.816406 171.984375 -234.914062 181.617188 -229.105469 C 191.085938 -223.398438 198.609375 -215.808594 204.191406 -206.332031 C 209.851562 -196.71875 212.683594 -186.164062 212.683594 -174.664062 C 212.683594 -163.367188 209.902344 -153.019531 204.339844 -143.613281 C 198.890625 -134.402344 191.570312 -126.949219 182.378906 -121.253906 C 172.925781 -115.394531 162.292969 -112.464844 150.484375 -112.464844 L 150.484375 -124.398438 L 162.414062 -124.449219 L 162.734375 -50.320312 C 162.734375 -38.765625 159.84375 -28.125 154.058594 -18.398438 C 148.371094 -8.835938 140.800781 -1.207031 131.351562 4.492188 C 121.714844 10.300781 111.125 13.203125 99.582031 13.203125 C 88.222656 13.203125 77.769531 10.285156 68.226562 4.453125 C 58.871094 -1.261719 51.410156 -8.914062 45.839844 -18.503906 C 40.199219 -28.203125 37.382812 -38.792969 37.382812 -50.269531 L 37.382812 -124.398438 L 49.3125 -124.398438 L 49.3125 -112.464844 C 37.742188 -112.464844 27.183594 -115.382812 17.640625 -121.214844 C 8.316406 -126.914062 0.921875 -134.382812 -4.542969 -143.613281 C -10.105469 -153.019531 -12.886719 -163.367188 -12.886719 -174.664062 C -12.886719 -186.121094 -10.128906 -196.640625 -4.613281 -206.226562 C 0.851562 -215.726562 8.269531 -223.34375 17.640625 -229.066406 C 27.183594 -234.902344 37.742188 -237.816406 49.3125 -237.816406 Z M 149.53125 -213.957031 L 49.3125 -213.957031 C 42.21875 -213.957031 35.808594 -212.207031 30.082031 -208.707031 C 24.179688 -205.101562 19.507812 -200.304688 16.066406 -194.324219 C 12.671875 -188.425781 10.976562 -181.871094 10.976562 -174.664062 C 10.976562 -167.71875 12.648438 -161.421875 15.996094 -155.765625 C 19.441406 -149.9375 24.136719 -145.210938 30.082031 -141.578125 C 35.808594 -138.078125 42.21875 -136.328125 49.3125 -136.328125 L 61.242188 -136.328125 L 61.242188 -50.269531 C 61.242188 -43.078125 62.984375 -36.488281 66.46875 -30.492188 C 70.019531 -24.386719 74.75 -19.523438 80.667969 -15.90625 C 86.394531 -12.40625 92.699219 -10.65625 99.582031 -10.65625 C 106.703125 -10.65625 113.1875 -12.421875 119.03125 -15.945312 C 125.066406 -19.582031 129.902344 -24.464844 133.550781 -30.59375 C 137.097656 -36.5625 138.871094 -43.105469 138.871094 -50.214844 L 138.503906 -136.328125 L 150.484375 -136.328125 C 157.765625 -136.328125 164.207031 -138.0625 169.8125 -141.539062 C 175.679688 -145.175781 180.34375 -149.917969 183.804688 -155.765625 C 187.148438 -161.421875 188.820312 -167.71875 188.820312 -174.664062 C 188.820312 -181.828125 187.09375 -188.347656 183.632812 -194.21875 C 180.09375 -200.226562 175.316406 -205.042969 169.300781 -208.667969 C 163.453125 -212.195312 156.863281 -213.957031 149.53125 -213.957031 Z M 149.53125 -213.957031 "/></g></g></g><g fill="#6a2500" fill-opacity="1"><g transform="translate(758.577603, 419.602972)"><g><path d="M -12.25 -175.617188 C -12.25 -195.1875 -6.875 -210.480469 3.867188 -221.492188 C 14.691406 -232.585938 29.839844 -238.136719 49.3125 -238.136719 L 132.988281 -238.136719 C 144.539062 -238.136719 155.03125 -235.28125 164.460938 -229.570312 C 173.683594 -223.984375 181.082031 -216.523438 186.65625 -207.1875 C 192.34375 -197.667969 195.183594 -187.144531 195.183594 -175.617188 C 195.183594 -161.953125 191.003906 -149.503906 182.644531 -138.273438 C 174.285156 -127.039062 163.542969 -119.453125 150.414062 -115.515625 L 149.972656 -115.382812 L 149.519531 -115.285156 C 143.804688 -114.042969 137.765625 -113.421875 131.394531 -113.421875 L 131.394531 -125.351562 L 135.167969 -114.03125 C 136.761719 -114.5625 138.132812 -115.546875 139.28125 -116.984375 C 140.707031 -118.765625 141.417969 -120.757812 141.417969 -122.964844 C 141.417969 -125.878906 140.289062 -128.375 138.027344 -130.449219 C 136.0625 -132.246094 133.855469 -133.144531 131.394531 -133.144531 L 132.292969 -133.144531 L 133.175781 -133.011719 C 142.402344 -131.621094 151.253906 -132.480469 159.734375 -135.59375 L 170.765625 -139.648438 L 174.984375 -128.679688 C 176.261719 -125.359375 177.335938 -121.703125 178.207031 -117.71875 C 179.132812 -113.484375 179.597656 -109.136719 179.597656 -104.671875 C 179.597656 -93.355469 176.753906 -82.941406 171.066406 -73.421875 C 165.480469 -64.0625 158.007812 -56.589844 148.648438 -51 C 139.128906 -45.316406 128.605469 -42.472656 117.078125 -42.472656 L 100.535156 -42.472656 L 100.535156 -54.402344 L 112.464844 -54.402344 L 112.464844 -48.996094 C 112.464844 -37.679688 109.625 -27.261719 103.9375 -17.742188 C 98.351562 -8.386719 90.875 -0.914062 81.519531 4.675781 C 72 10.359375 61.582031 13.203125 50.269531 13.203125 C 38.980469 13.203125 28.53125 10.371094 18.917969 4.710938 C 9.425781 -0.878906 1.878906 -8.363281 -3.722656 -17.742188 C -9.40625 -27.261719 -12.25 -37.679688 -12.25 -48.996094 Z M 11.613281 -175.617188 L 11.613281 -48.996094 C 11.613281 -42.070312 13.328125 -35.730469 16.765625 -29.980469 C 20.285156 -24.085938 25.039062 -19.375 31.03125 -15.847656 C 36.902344 -12.386719 43.316406 -10.65625 50.269531 -10.65625 C 57.195312 -10.65625 63.53125 -12.375 69.285156 -15.8125 C 75.199219 -19.34375 79.921875 -24.066406 83.453125 -29.980469 C 86.886719 -35.730469 88.605469 -42.070312 88.605469 -48.996094 L 88.605469 -66.335938 L 117.078125 -66.335938 C 124.21875 -66.335938 130.664062 -68.050781 136.414062 -71.488281 C 142.328125 -75.019531 147.050781 -79.742188 150.582031 -85.65625 C 154.015625 -91.40625 155.734375 -97.746094 155.734375 -104.671875 C 155.734375 -107.417969 155.453125 -110.066406 154.894531 -112.621094 C 154.285156 -115.421875 153.554688 -117.921875 152.710938 -120.113281 L 163.847656 -124.398438 L 167.960938 -113.199219 C 155.65625 -108.675781 142.871094 -107.417969 129.617188 -109.417969 L 131.394531 -121.214844 L 131.394531 -109.285156 C 127.664062 -109.285156 124.5 -110.476562 121.902344 -112.859375 C 119.003906 -115.515625 117.554688 -118.882812 117.554688 -122.964844 C 117.554688 -126.339844 118.585938 -129.3125 120.648438 -131.890625 C 122.433594 -134.121094 124.757812 -135.714844 127.625 -136.667969 L 129.460938 -137.28125 L 131.394531 -137.28125 C 136.054688 -137.28125 140.40625 -137.722656 144.449219 -138.601562 L 146.984375 -126.941406 L 143.558594 -138.371094 C 151.640625 -140.792969 158.289062 -145.511719 163.503906 -152.515625 C 168.714844 -159.523438 171.324219 -167.222656 171.324219 -175.617188 C 171.324219 -182.757812 169.605469 -189.203125 166.171875 -194.953125 C 162.625 -200.890625 157.933594 -205.625 152.097656 -209.160156 C 146.46875 -212.570312 140.097656 -214.273438 132.988281 -214.273438 L 49.3125 -214.273438 C 36.546875 -214.273438 27.089844 -211.125 20.949219 -204.828125 C 14.722656 -198.449219 11.613281 -188.714844 11.613281 -175.617188 Z M 11.613281 -175.617188 "/></g></g></g><g fill="#d45715" fill-opacity="1"><g transform="translate(553.053036, 419.602972)"><g><path d="M 149.53125 -225.890625 C 159.070312 -225.890625 167.710938 -223.554688 175.453125 -218.890625 C 183.203125 -214.222656 189.351562 -208.019531 193.90625 -200.28125 C 198.46875 -192.539062 200.75 -184.003906 200.75 -174.671875 C 200.75 -165.546875 198.519531 -157.21875 194.0625 -149.6875 C 189.613281 -142.15625 183.625 -136.054688 176.09375 -131.390625 C 168.570312 -126.734375 160.035156 -124.40625 150.484375 -124.40625 L 150.8125 -50.265625 C 150.8125 -40.929688 148.476562 -32.335938 143.8125 -24.484375 C 139.144531 -16.640625 132.9375 -10.382812 125.1875 -5.71875 C 117.445312 -1.0625 108.910156 1.265625 99.578125 1.265625 C 90.460938 1.265625 82.085938 -1.0625 74.453125 -5.71875 C 66.816406 -10.382812 60.71875 -16.640625 56.15625 -24.484375 C 51.59375 -32.335938 49.3125 -40.929688 49.3125 -50.265625 L 49.3125 -124.40625 C 39.976562 -124.40625 31.492188 -126.734375 23.859375 -131.390625 C 16.222656 -136.054688 10.175781 -142.15625 5.71875 -149.6875 C 1.269531 -157.21875 -0.953125 -165.546875 -0.953125 -174.671875 C -0.953125 -184.003906 1.269531 -192.539062 5.71875 -200.28125 C 10.175781 -208.019531 16.222656 -214.222656 23.859375 -218.890625 C 31.492188 -223.554688 39.976562 -225.890625 49.3125 -225.890625 Z M 149.53125 -225.890625 "/></g></g></g><g fill="#d45715" fill-opacity="1"><g transform="translate(758.577603, 419.602972)"><g><path d="M -0.3125 -175.625 C -0.3125 -191.957031 3.925781 -204.46875 12.40625 -213.15625 C 20.894531 -221.851562 33.195312 -226.203125 49.3125 -226.203125 L 132.984375 -226.203125 C 142.316406 -226.203125 150.75 -223.921875 158.28125 -219.359375 C 165.8125 -214.804688 171.859375 -208.710938 176.421875 -201.078125 C 180.984375 -193.441406 183.265625 -184.957031 183.265625 -175.625 C 183.265625 -164.59375 179.867188 -154.515625 173.078125 -145.390625 C 166.285156 -136.273438 157.585938 -130.125 146.984375 -126.9375 C 142.109375 -125.882812 136.914062 -125.359375 131.40625 -125.359375 C 130.125 -124.929688 129.484375 -124.132812 129.484375 -122.96875 C 129.484375 -121.800781 130.125 -121.21875 131.40625 -121.21875 C 142.644531 -119.519531 153.457031 -120.582031 163.84375 -124.40625 C 164.90625 -121.644531 165.804688 -118.566406 166.546875 -115.171875 C 167.296875 -111.773438 167.671875 -108.273438 167.671875 -104.671875 C 167.671875 -95.554688 165.390625 -87.175781 160.828125 -79.53125 C 156.265625 -71.894531 150.164062 -65.796875 142.53125 -61.234375 C 134.894531 -56.679688 126.410156 -54.40625 117.078125 -54.40625 L 100.53125 -54.40625 L 100.53125 -49 C 100.53125 -39.875 98.25 -31.492188 93.6875 -23.859375 C 89.132812 -16.222656 83.039062 -10.125 75.40625 -5.5625 C 67.769531 -1.007812 59.390625 1.265625 50.265625 1.265625 C 41.148438 1.265625 32.71875 -1.007812 24.96875 -5.5625 C 17.226562 -10.125 11.078125 -16.222656 6.515625 -23.859375 C 1.960938 -31.492188 -0.3125 -39.875 -0.3125 -49 Z M -0.3125 -175.625 "/></g></g></g><g fill="#7e6300" fill-opacity="1"><g transform="translate(551.787411, 692.36764)"><g><path d="M 22.453125 6.589844 C 12.28125 1.632812 4.109375 -5.375 -2.066406 -14.441406 C -8.226562 -23.484375 -11.765625 -33.449219 -12.683594 -44.332031 C -13.605469 -55.273438 -11.699219 -65.738281 -6.964844 -75.738281 L 53.15625 -203.292969 C 58.640625 -215.046875 66.582031 -223.988281 76.976562 -230.117188 C 87.078125 -236.074219 97.90625 -239.117188 109.46875 -239.25 C 121.085938 -239.378906 131.972656 -236.511719 142.128906 -230.652344 C 152.539062 -224.648438 160.609375 -215.65625 166.339844 -203.671875 L 227.117188 -75.75 C 232.101562 -65.789062 234.058594 -55.269531 232.988281 -44.191406 C 231.949219 -33.402344 228.4375 -23.519531 222.449219 -14.539062 C 216.351562 -5.390625 208.070312 1.667969 197.601562 6.640625 C 187.34375 11.375 176.71875 13.28125 165.71875 12.367188 C 154.695312 11.449219 144.707031 7.894531 135.746094 1.703125 C 126.820312 -4.46875 119.886719 -12.625 114.945312 -22.773438 L 87.21875 -81.121094 L 86.988281 -81.808594 C 88.050781 -78.628906 90.160156 -76.40625 93.320312 -75.140625 C 95.445312 -74.292969 97.539062 -74.125 99.609375 -74.644531 C 102.734375 -75.425781 105.035156 -77.292969 106.515625 -80.246094 C 107.574219 -82.371094 107.890625 -84.503906 107.460938 -86.648438 L 95.761719 -84.308594 L 107.363281 -87.105469 L 116.921875 -47.441406 L 105.640625 -22.996094 C 100.613281 -12.675781 93.570312 -4.425781 84.503906 1.746094 C 75.460938 7.910156 65.496094 11.449219 54.609375 12.367188 C 43.753906 13.28125 33.144531 11.40625 22.78125 6.742188 L 22.617188 6.667969 Z M 32.90625 -14.863281 L 27.679688 -4.136719 L 32.574219 -15.015625 C 39.179688 -12.042969 45.855469 -10.84375 52.605469 -11.410156 C 59.324219 -11.976562 65.480469 -14.164062 71.070312 -17.972656 C 76.640625 -21.769531 80.941406 -26.777344 83.976562 -32.996094 L 93.519531 -53.675781 L 104.351562 -48.675781 L 92.753906 -45.882812 L 84.109375 -81.742188 L 84.0625 -81.96875 C 83.421875 -85.175781 83.792969 -88.160156 85.171875 -90.917969 C 86.964844 -94.507812 89.851562 -96.800781 93.824219 -97.792969 C 96.742188 -98.523438 99.53125 -98.355469 102.183594 -97.296875 C 105.871094 -95.820312 108.355469 -93.171875 109.625 -89.355469 L 98.308594 -85.582031 L 109.085938 -90.703125 L 136.394531 -33.222656 C 139.511719 -26.824219 143.816406 -21.726562 149.316406 -17.925781 C 154.78125 -14.148438 160.910156 -11.976562 167.703125 -11.414062 C 174.519531 -10.84375 181.074219 -12.011719 187.363281 -14.914062 C 193.859375 -18 198.9375 -22.285156 202.597656 -27.773438 C 206.367188 -33.429688 208.582031 -39.667969 209.238281 -46.480469 C 209.867188 -53.007812 208.644531 -59.351562 205.566406 -65.507812 L 144.8125 -193.378906 C 141.210938 -200.910156 136.339844 -206.445312 130.207031 -209.984375 C 123.820312 -213.667969 116.996094 -215.46875 109.738281 -215.386719 C 102.421875 -215.304688 95.542969 -213.363281 89.097656 -209.566406 C 82.949219 -205.9375 78.164062 -200.457031 74.738281 -193.121094 L 14.601562 -65.523438 C 11.699219 -59.398438 10.53125 -53.003906 11.09375 -46.339844 C 11.660156 -39.617188 13.847656 -33.464844 17.65625 -27.875 C 21.449219 -22.304688 26.53125 -17.964844 32.90625 -14.863281 Z M 32.90625 -14.863281 "/></g></g></g><g fill="#7e6300" fill-opacity="1"><g transform="translate(779.900573, 692.36764)"><g><path d="M 51.539062 11.929688 C 39.664062 11.929688 28.832031 9.125 19.039062 3.511719 C 9.222656 -2.121094 1.546875 -9.738281 -3.976562 -19.34375 C -9.539062 -29.007812 -12.1875 -39.824219 -11.929688 -51.800781 L -11.929688 -175.9375 C -11.929688 -187.464844 -9.089844 -197.988281 -3.402344 -207.507812 C 2.1875 -216.863281 9.660156 -224.335938 19.015625 -229.925781 C 28.535156 -235.609375 39.058594 -238.453125 50.585938 -238.453125 C 62.324219 -238.453125 72.953125 -235.609375 82.472656 -229.925781 C 91.832031 -224.335938 99.304688 -216.863281 104.894531 -207.507812 C 110.578125 -197.988281 113.421875 -187.464844 113.421875 -175.9375 L 112.785156 -101.707031 L 100.855469 -101.808594 L 100.855469 -113.738281 L 111.988281 -113.738281 C 125.425781 -113.738281 136.804688 -110.632812 146.125 -104.417969 C 155.261719 -98.328125 162.15625 -90.429688 166.8125 -80.71875 C 171.304688 -71.347656 173.550781 -61.410156 173.550781 -50.902344 C 173.550781 -40.398438 171.304688 -30.460938 166.8125 -21.089844 C 162.15625 -11.378906 155.261719 -3.480469 146.125 2.609375 C 136.804688 8.824219 125.425781 11.929688 111.988281 11.929688 Z M 51.539062 -11.929688 L 111.988281 -11.929688 C 120.609375 -11.929688 127.578125 -13.703125 132.890625 -17.246094 C 138.390625 -20.910156 142.527344 -25.632812 145.292969 -31.40625 C 148.222656 -37.515625 149.691406 -44.015625 149.691406 -50.902344 C 149.691406 -57.792969 148.222656 -64.292969 145.292969 -70.402344 C 142.527344 -76.175781 138.390625 -80.894531 132.890625 -84.5625 C 127.578125 -88.105469 120.609375 -89.878906 111.988281 -89.878906 L 88.820312 -89.878906 L 89.558594 -175.9375 C 89.558594 -183.074219 87.839844 -189.519531 84.40625 -195.273438 C 80.875 -201.183594 76.152344 -205.90625 70.238281 -209.441406 C 64.488281 -212.875 57.9375 -214.59375 50.585938 -214.59375 C 43.449219 -214.59375 37.003906 -212.875 31.25 -209.441406 C 25.335938 -205.90625 20.613281 -201.183594 17.082031 -195.273438 C 13.648438 -189.519531 11.929688 -183.074219 11.929688 -175.9375 L 11.929688 -51.28125 C 11.765625 -43.742188 13.355469 -37.0625 16.703125 -31.242188 C 20.085938 -25.363281 24.820312 -20.679688 30.910156 -17.191406 C 37.023438 -13.683594 43.902344 -11.929688 51.539062 -11.929688 Z M 51.539062 -11.929688 "/></g></g></g><g fill="#fbc602" fill-opacity="1"><g transform="translate(551.787411, 692.36764)"><g><path d="M 27.671875 -4.140625 C 19.398438 -8.171875 12.769531 -13.84375 7.78125 -21.15625 C 2.800781 -28.476562 -0.0546875 -36.539062 -0.796875 -45.34375 C -1.535156 -54.144531 0 -62.570312 3.8125 -70.625 L 63.953125 -198.21875 C 68.398438 -207.757812 74.757812 -214.96875 83.03125 -219.84375 C 91.3125 -224.71875 100.171875 -227.207031 109.609375 -227.3125 C 119.046875 -227.425781 127.898438 -225.097656 136.171875 -220.328125 C 144.441406 -215.554688 150.910156 -208.289062 155.578125 -198.53125 L 216.34375 -70.625 C 220.375 -62.570312 221.960938 -54.144531 221.109375 -45.34375 C 220.265625 -36.539062 217.398438 -28.476562 212.515625 -21.15625 C 207.640625 -13.84375 200.960938 -8.171875 192.484375 -4.140625 C 184.210938 -0.316406 175.617188 1.21875 166.703125 0.46875 C 157.796875 -0.269531 149.738281 -3.128906 142.53125 -8.109375 C 135.320312 -13.097656 129.703125 -19.726562 125.671875 -28 L 98.3125 -85.578125 C 98.09375 -86.210938 97.5625 -86.425781 96.71875 -86.21875 C 95.875 -86.007812 95.554688 -85.375 95.765625 -84.3125 L 104.359375 -48.671875 L 94.8125 -28 C 90.78125 -19.726562 85.101562 -13.097656 77.78125 -8.109375 C 70.46875 -3.128906 62.410156 -0.269531 53.609375 0.46875 C 44.804688 1.21875 36.160156 -0.316406 27.671875 -4.140625 Z M 27.671875 -4.140625 "/></g></g></g><g fill="#fbc602" fill-opacity="1"><g transform="translate(779.900573, 692.36764)"><g><path d="M 51.546875 0 C 41.785156 0 32.925781 -2.28125 24.96875 -6.84375 C 17.019531 -11.40625 10.816406 -17.554688 6.359375 -25.296875 C 1.910156 -33.035156 -0.207031 -41.785156 0 -51.546875 L 0 -175.9375 C 0 -185.269531 2.28125 -193.753906 6.84375 -201.390625 C 11.40625 -209.023438 17.503906 -215.125 25.140625 -219.6875 C 32.773438 -224.25 41.257812 -226.53125 50.59375 -226.53125 C 60.132812 -226.53125 68.722656 -224.25 76.359375 -219.6875 C 83.992188 -215.125 90.085938 -209.023438 94.640625 -201.390625 C 99.203125 -193.753906 101.484375 -185.269531 101.484375 -175.9375 L 100.859375 -101.8125 L 111.984375 -101.8125 C 123.015625 -101.8125 132.1875 -99.367188 139.5 -94.484375 C 146.820312 -89.609375 152.335938 -83.300781 156.046875 -75.5625 C 159.765625 -67.820312 161.625 -59.601562 161.625 -50.90625 C 161.625 -42.207031 159.765625 -33.988281 156.046875 -26.25 C 152.335938 -18.507812 146.820312 -12.195312 139.5 -7.3125 C 132.1875 -2.4375 123.015625 0 111.984375 0 Z M 51.546875 0 "/></g></g></g><g fill="#001c54" fill-opacity="1"><g transform="translate(524.58819, 965.132177)"><g><path d="M 213.957031 -175.9375 C 213.957031 -165.554688 211.523438 -156.101562 206.65625 -147.589844 C 201.667969 -138.859375 194.414062 -132.046875 184.894531 -127.148438 L 179.195312 -124.21875 L 173.605469 -127.347656 C 169.128906 -129.855469 164.324219 -131.832031 159.191406 -133.273438 C 153.941406 -134.746094 148.546875 -135.667969 143.011719 -136.035156 L 143.804688 -147.941406 L 143.804688 -136.007812 C 145.769531 -136.007812 147.605469 -136.632812 149.308594 -137.882812 C 151.148438 -139.230469 152.355469 -140.953125 152.929688 -143.050781 C 153.660156 -145.742188 153.273438 -148.34375 151.765625 -150.855469 C 150.492188 -152.980469 148.777344 -154.402344 146.621094 -155.121094 L 142.847656 -143.804688 L 145.457031 -155.445312 C 161.742188 -151.800781 175.171875 -145.125 185.753906 -135.414062 C 196.238281 -125.792969 203.71875 -114.578125 208.199219 -101.765625 C 212.601562 -89.171875 214.128906 -76.316406 212.78125 -63.207031 C 211.414062 -49.929688 206.964844 -37.550781 199.433594 -26.066406 C 191.824219 -14.460938 181.261719 -5.160156 167.746094 1.84375 C 154.359375 8.78125 138.320312 12.25 119.625 12.25 L 49.949219 12.25 C 38.339844 12.25 27.691406 8.886719 18.011719 2.164062 C 8.9375 -4.136719 1.625 -12.019531 -3.925781 -21.484375 C -9.6875 -31.300781 -12.566406 -41 -12.566406 -50.585938 C -12.566406 -61.132812 -10.566406 -70.46875 -6.570312 -78.597656 C -2.519531 -86.832031 3.800781 -94.074219 12.390625 -100.320312 L 19.054688 -105.167969 L 25.945312 -100.652344 C 31.035156 -97.316406 36.894531 -94.753906 43.519531 -92.964844 C 50.347656 -91.117188 56.945312 -90.195312 63.3125 -90.195312 C 61.195312 -90.195312 59.242188 -89.492188 57.453125 -88.082031 C 55.453125 -86.511719 54.234375 -84.535156 53.800781 -82.148438 C 53.332031 -79.570312 53.855469 -77.144531 55.375 -74.867188 C 56.621094 -72.996094 58.222656 -71.734375 60.175781 -71.082031 L 63.949219 -82.402344 L 62.816406 -70.523438 C 57.460938 -71.035156 52.125 -72.175781 46.8125 -73.945312 C 41.824219 -75.609375 36.953125 -77.628906 32.207031 -80 L 31.949219 -80.132812 C 19.882812 -86.535156 10.230469 -94.859375 2.984375 -105.097656 C -4.199219 -115.253906 -8.84375 -126.355469 -10.957031 -138.402344 C -13.042969 -150.3125 -12.675781 -162.160156 -9.851562 -173.945312 C -7 -185.847656 -1.683594 -196.679688 6.101562 -206.441406 C 13.980469 -216.320312 24.304688 -224.144531 37.082031 -229.917969 C 49.726562 -235.632812 64.570312 -238.371094 81.613281 -238.132812 L 150.484375 -238.136719 C 162.152344 -238.136719 172.78125 -235.378906 182.363281 -229.863281 C 191.867188 -224.398438 199.480469 -216.980469 205.207031 -207.609375 C 211.039062 -198.066406 213.957031 -187.507812 213.957031 -175.9375 Z M 190.09375 -175.9375 C 190.09375 -183.03125 188.34375 -189.441406 184.847656 -195.167969 C 181.238281 -201.070312 176.445312 -205.742188 170.464844 -209.183594 C 164.566406 -212.578125 157.90625 -214.273438 150.484375 -214.273438 L 81.28125 -214.273438 C 67.78125 -214.460938 56.324219 -212.429688 46.910156 -208.175781 C 37.628906 -203.980469 30.242188 -198.441406 24.757812 -191.5625 C 19.179688 -184.570312 15.378906 -176.84375 13.351562 -168.386719 C 11.296875 -159.808594 11.027344 -151.1875 12.546875 -142.523438 C 14.042969 -133.996094 17.347656 -126.113281 22.464844 -118.878906 C 27.523438 -111.726562 34.414062 -105.839844 43.132812 -101.210938 L 37.542969 -90.671875 L 42.878906 -101.34375 C 46.613281 -99.476562 50.441406 -97.886719 54.359375 -96.582031 C 57.953125 -95.382812 61.527344 -94.617188 65.078125 -94.277344 L 66.433594 -94.148438 L 67.722656 -93.71875 C 70.945312 -92.644531 73.449219 -90.773438 75.226562 -88.105469 C 77.273438 -85.03125 77.957031 -81.625 77.277344 -77.878906 C 76.632812 -74.328125 74.9375 -71.476562 72.195312 -69.320312 C 69.660156 -67.328125 66.699219 -66.335938 63.3125 -66.335938 C 54.832031 -66.335938 46.160156 -67.53125 37.292969 -69.929688 C 28.222656 -72.378906 20.078125 -75.96875 12.867188 -80.691406 L 19.40625 -90.671875 L 26.425781 -81.023438 C 21.015625 -77.089844 17.15625 -72.773438 14.84375 -68.066406 C 12.476562 -63.257812 11.292969 -57.433594 11.292969 -50.585938 C 11.292969 -45.324219 13.082031 -39.648438 16.652344 -33.558594 C 20.433594 -27.113281 25.421875 -21.738281 31.621094 -17.433594 C 37.210938 -13.554688 43.320312 -11.613281 49.949219 -11.613281 L 119.625 -11.613281 C 134.441406 -11.613281 146.824219 -14.1875 156.765625 -19.34375 C 166.582031 -24.429688 174.15625 -31.03125 179.480469 -39.152344 C 184.886719 -47.394531 188.074219 -56.226562 189.042969 -65.644531 C 190.027344 -75.230469 188.90625 -84.644531 185.671875 -93.894531 C 182.511719 -102.933594 177.164062 -110.910156 169.621094 -117.832031 C 162.171875 -124.667969 152.378906 -129.445312 140.242188 -132.160156 L 139.652344 -132.292969 L 139.078125 -132.484375 C 135.648438 -133.628906 133.058594 -135.660156 131.304688 -138.582031 C 129.320312 -141.886719 128.855469 -145.472656 129.90625 -149.328125 C 130.796875 -152.589844 132.558594 -155.191406 135.199219 -157.125 C 137.695312 -158.953125 140.5625 -159.871094 143.804688 -159.871094 L 144.199219 -159.871094 L 144.597656 -159.84375 C 151.785156 -159.363281 158.800781 -158.164062 165.640625 -156.246094 C 172.597656 -154.292969 179.136719 -151.601562 185.265625 -148.167969 L 179.4375 -137.757812 L 173.980469 -148.367188 C 179.304688 -151.109375 183.292969 -154.792969 185.941406 -159.425781 C 188.710938 -164.273438 190.09375 -169.777344 190.09375 -175.9375 Z M 190.09375 -175.9375 "/></g></g></g><g fill="#001c54" fill-opacity="1"><g transform="translate(736.157547, 965.132177)"><g><path d="M 114.535156 -241 C 132.074219 -241 148.648438 -237.65625 164.25 -230.964844 C 179.765625 -224.320312 193.363281 -215.148438 205.054688 -203.460938 C 216.734375 -191.78125 225.898438 -178.246094 232.542969 -162.851562 C 239.242188 -147.34375 242.589844 -130.8125 242.589844 -113.261719 C 242.589844 -95.710938 239.242188 -79.179688 232.542969 -63.671875 C 225.890625 -48.257812 216.710938 -34.761719 205.011719 -23.175781 C 193.3125 -11.597656 179.703125 -2.539062 164.183594 3.996094 C 148.597656 10.558594 132.046875 13.839844 114.535156 13.839844 C 97.222656 13.839844 80.820312 10.554688 65.332031 3.984375 C 49.929688 -2.550781 36.382812 -11.605469 24.695312 -23.175781 C 12.992188 -34.761719 3.816406 -48.257812 -2.839844 -63.671875 C -9.535156 -79.179688 -12.886719 -95.710938 -12.886719 -113.261719 C -12.886719 -130.8125 -9.535156 -147.34375 -2.839844 -162.851562 C 3.808594 -178.246094 12.972656 -191.78125 24.652344 -203.460938 C 36.332031 -215.140625 49.867188 -224.304688 65.261719 -230.953125 C 80.769531 -237.652344 97.195312 -241 114.535156 -241 Z M 114.535156 -217.136719 C 100.484375 -217.136719 87.210938 -214.441406 74.722656 -209.046875 C 62.121094 -203.605469 51.054688 -196.121094 41.523438 -186.589844 C 31.992188 -177.058594 24.507812 -165.992188 19.066406 -153.390625 C 13.671875 -140.902344 10.976562 -127.523438 10.976562 -113.261719 C 10.976562 -98.996094 13.671875 -85.621094 19.066406 -73.132812 C 24.5 -60.546875 31.972656 -49.550781 41.480469 -40.132812 C 51 -30.710938 62.058594 -23.324219 74.652344 -17.984375 C 87.164062 -12.675781 100.457031 -10.023438 114.535156 -10.023438 C 128.835938 -10.023438 142.296875 -12.679688 154.921875 -17.996094 C 167.609375 -23.335938 178.710938 -30.71875 188.222656 -40.132812 C 197.734375 -49.550781 205.203125 -60.546875 210.636719 -73.132812 C 216.03125 -85.621094 218.726562 -98.996094 218.726562 -113.261719 C 218.726562 -127.523438 216.03125 -140.902344 210.636719 -153.390625 C 205.195312 -165.992188 197.710938 -177.058594 188.179688 -186.589844 C 178.660156 -196.113281 167.550781 -203.59375 154.851562 -209.035156 C 142.25 -214.4375 128.808594 -217.136719 114.535156 -217.136719 Z M 114.535156 -113.421875 C 114.789062 -113.421875 115.015625 -113.464844 115.21875 -113.550781 C 115.15625 -113.523438 115.011719 -113.40625 114.785156 -113.199219 C 114.863281 -113.269531 114.933594 -113.386719 115.003906 -113.550781 C 115.023438 -113.597656 115.035156 -113.628906 115.035156 -113.644531 C 115.019531 -113.554688 115.011719 -113.425781 115.011719 -113.261719 C 115.011719 -113.164062 115.066406 -113.058594 115.175781 -112.949219 C 115.34375 -112.78125 115.488281 -112.652344 115.609375 -112.566406 L 115.585938 -112.566406 C 115.28125 -112.710938 114.929688 -112.785156 114.535156 -112.785156 C 114.632812 -112.785156 114.738281 -112.839844 114.847656 -112.949219 C 114.957031 -113.058594 115.011719 -113.164062 115.011719 -113.261719 C 115.011719 -113.425781 115.003906 -113.554688 114.984375 -113.644531 C 114.988281 -113.628906 115 -113.597656 115.019531 -113.550781 C 115.089844 -113.386719 115.160156 -113.269531 115.238281 -113.199219 C 115.078125 -113.347656 114.84375 -113.421875 114.535156 -113.421875 Z M 114.535156 -137.28125 C 121.011719 -137.28125 126.609375 -135.128906 131.328125 -130.820312 C 136.359375 -126.230469 138.871094 -120.375 138.871094 -113.261719 C 138.871094 -106.574219 136.488281 -100.84375 131.71875 -96.074219 C 126.949219 -91.308594 121.222656 -88.921875 114.535156 -88.921875 C 108.480469 -88.921875 103.070312 -91.308594 98.304688 -96.074219 C 93.535156 -100.84375 91.148438 -106.574219 91.148438 -113.261719 C 91.148438 -120.375 93.664062 -126.230469 98.695312 -130.820312 C 103.414062 -135.128906 108.691406 -137.28125 114.535156 -137.28125 Z M 114.535156 -137.28125 "/></g></g></g><g fill="#2853a8" fill-opacity="1"><g transform="translate(524.58819, 965.132177)"><g><path d="M 202.03125 -175.9375 C 202.03125 -167.664062 200.117188 -160.1875 196.296875 -153.5 C 192.484375 -146.820312 186.863281 -141.578125 179.4375 -137.765625 C 174.132812 -140.734375 168.457031 -143.066406 162.40625 -144.765625 C 156.363281 -146.460938 150.164062 -147.519531 143.8125 -147.9375 C 142.53125 -147.9375 141.726562 -147.351562 141.40625 -146.1875 C 141.09375 -145.019531 141.578125 -144.226562 142.859375 -143.8125 C 157.066406 -140.625 168.675781 -134.894531 177.6875 -126.625 C 186.707031 -118.351562 193.125 -108.753906 196.9375 -97.828125 C 200.757812 -86.910156 202.085938 -75.773438 200.921875 -64.421875 C 199.753906 -53.078125 195.9375 -42.472656 189.46875 -32.609375 C 183 -22.742188 173.929688 -14.789062 162.265625 -8.75 C 150.597656 -2.707031 136.382812 0.3125 119.625 0.3125 L 49.953125 0.3125 C 40.828125 0.3125 32.445312 -2.335938 24.8125 -7.640625 C 17.175781 -12.941406 11.023438 -19.566406 6.359375 -27.515625 C 1.691406 -35.472656 -0.640625 -43.164062 -0.640625 -50.59375 C -0.640625 -59.28125 0.945312 -66.859375 4.125 -73.328125 C 7.3125 -79.796875 12.40625 -85.578125 19.40625 -90.671875 C 25.5625 -86.640625 32.5625 -83.5625 40.40625 -81.4375 C 48.25 -79.320312 55.882812 -78.265625 63.3125 -78.265625 C 64.582031 -78.265625 65.320312 -78.847656 65.53125 -80.015625 C 65.75 -81.179688 65.222656 -81.976562 63.953125 -82.40625 C 59.492188 -82.820312 55.035156 -83.773438 50.578125 -85.265625 C 46.128906 -86.753906 41.785156 -88.554688 37.546875 -90.671875 C 27.148438 -96.191406 18.875 -103.296875 12.71875 -111.984375 C 6.570312 -120.679688 2.597656 -130.171875 0.796875 -140.453125 C -1.003906 -150.742188 -0.6875 -160.976562 1.75 -171.15625 C 4.1875 -181.34375 8.742188 -190.625 15.421875 -199 C 22.109375 -207.382812 30.96875 -214.066406 42 -219.046875 C 53.03125 -224.035156 66.179688 -226.421875 81.453125 -226.203125 L 150.484375 -226.203125 C 160.035156 -226.203125 168.679688 -223.972656 176.421875 -219.515625 C 184.160156 -215.066406 190.363281 -209.023438 195.03125 -201.390625 C 199.695312 -193.753906 202.03125 -185.269531 202.03125 -175.9375 Z M 202.03125 -175.9375 "/></g></g></g><g fill="#2853a8" fill-opacity="1"><g transform="translate(736.157547, 965.132177)"><g><path d="M 114.53125 -229.078125 C 130.4375 -229.078125 145.441406 -226.050781 159.546875 -220 C 173.660156 -213.957031 186.019531 -205.632812 196.625 -195.03125 C 207.226562 -184.425781 215.550781 -172.125 221.59375 -158.125 C 227.632812 -144.125 230.65625 -129.171875 230.65625 -113.265625 C 230.65625 -97.359375 227.632812 -82.40625 221.59375 -68.40625 C 215.550781 -54.40625 207.226562 -42.15625 196.625 -31.65625 C 186.019531 -21.15625 173.660156 -12.9375 159.546875 -7 C 145.441406 -1.0625 130.4375 1.90625 114.53125 1.90625 C 98.84375 1.90625 84 -1.0625 70 -7 C 56 -12.9375 43.695312 -21.15625 33.09375 -31.65625 C 22.488281 -42.15625 14.160156 -54.40625 8.109375 -68.40625 C 2.066406 -82.40625 -0.953125 -97.359375 -0.953125 -113.265625 C -0.953125 -129.171875 2.066406 -144.125 8.109375 -158.125 C 14.160156 -172.125 22.488281 -184.425781 33.09375 -195.03125 C 43.695312 -205.632812 56 -213.957031 70 -220 C 84 -226.050781 98.84375 -229.078125 114.53125 -229.078125 Z M 114.53125 -125.359375 C 111.78125 -125.359375 109.179688 -124.242188 106.734375 -122.015625 C 104.296875 -119.785156 103.078125 -116.867188 103.078125 -113.265625 C 103.078125 -109.867188 104.296875 -106.953125 106.734375 -104.515625 C 109.179688 -102.078125 111.78125 -100.859375 114.53125 -100.859375 C 117.925781 -100.859375 120.84375 -102.078125 123.28125 -104.515625 C 125.71875 -106.953125 126.9375 -109.867188 126.9375 -113.265625 C 126.9375 -116.867188 125.71875 -119.785156 123.28125 -122.015625 C 120.84375 -124.242188 117.925781 -125.359375 114.53125 -125.359375 Z M 114.53125 -125.359375 "/></g></g></g><g fill="#004d2b" fill-opacity="1"><g transform="translate(503.740536, 1237.896905)"><g><path d="M 130.09375 -220.140625 C 138.386719 -228.175781 147.847656 -233.566406 158.46875 -236.320312 C 169.054688 -239.066406 179.640625 -239.066406 190.226562 -236.320312 C 200.980469 -233.535156 210.316406 -228.046875 218.234375 -219.867188 L 209.660156 -211.570312 L 217.960938 -220.140625 C 226.355469 -212.007812 231.945312 -202.570312 234.730469 -191.816406 C 237.476562 -181.230469 237.476562 -170.644531 234.730469 -160.058594 C 231.960938 -149.371094 226.414062 -139.867188 218.097656 -131.550781 L 193.066406 -105.886719 L 184.527344 -114.214844 L 192.964844 -122.652344 L 221.277344 -94.335938 C 229.589844 -86.285156 235.136719 -76.824219 237.921875 -65.953125 C 240.65625 -55.273438 240.652344 -44.644531 237.914062 -34.070312 C 235.125 -23.316406 229.535156 -13.878906 221.144531 -5.746094 L 212.84375 -14.316406 L 221.414062 -6.019531 C 213.496094 2.160156 204.160156 7.648438 193.40625 10.433594 C 182.820312 13.179688 172.234375 13.179688 161.648438 10.433594 C 151.027344 7.683594 141.570312 2.289062 133.277344 -5.746094 L 104.824219 -34.195312 L 113.261719 -42.632812 L 121.867188 -34.367188 L 98.640625 -10.1875 C 92.21875 -3.269531 85.113281 2.105469 77.328125 5.933594 C 69.195312 9.933594 60.070312 11.929688 49.949219 11.929688 C 38.679688 11.929688 28.296875 9.160156 18.804688 3.625 C 9.359375 -1.882812 1.882812 -9.359375 -3.625 -18.804688 C -9.160156 -28.296875 -11.929688 -38.679688 -11.929688 -49.949219 L -11.929688 -175.9375 C -11.929688 -187.632812 -9.160156 -198.226562 -3.625 -207.71875 C 1.882812 -217.164062 9.359375 -224.636719 18.804688 -230.148438 C 28.296875 -235.683594 38.679688 -238.453125 49.949219 -238.453125 C 65.265625 -238.453125 78.628906 -233.863281 90.039062 -224.683594 C 101.378906 -215.558594 108.742188 -203.953125 112.132812 -189.863281 L 113.390625 -184.640625 L 91.863281 -153.832031 L 82.082031 -160.664062 L 93.65625 -157.773438 C 94.113281 -159.59375 94.039062 -161.40625 93.441406 -163.207031 C 92.980469 -164.589844 92.269531 -165.757812 91.3125 -166.714844 C 89.132812 -168.898438 86.441406 -169.878906 83.238281 -169.667969 C 80.652344 -169.496094 78.515625 -168.5625 76.828125 -166.875 L 129.957031 -220.007812 Z M 146.832031 -203.132812 L 93.699219 -150.003906 C 91.164062 -147.464844 88.203125 -146.082031 84.824219 -145.859375 C 80.824219 -145.589844 77.363281 -146.921875 74.441406 -149.84375 C 72.742188 -151.542969 71.53125 -153.480469 70.804688 -155.660156 C 69.9375 -158.253906 69.839844 -160.886719 70.507812 -163.558594 L 71.042969 -165.695312 L 90.757812 -193.90625 L 100.535156 -187.070312 L 88.9375 -184.28125 C 86.8125 -193.097656 82.195312 -200.367188 75.082031 -206.09375 C 68.039062 -211.757812 59.660156 -214.59375 49.949219 -214.59375 C 42.980469 -214.59375 36.605469 -212.90625 30.828125 -209.535156 C 25 -206.136719 20.386719 -201.523438 16.988281 -195.695312 C 13.617188 -189.917969 11.929688 -183.332031 11.929688 -175.9375 L 11.929688 -49.949219 C 11.929688 -42.980469 13.617188 -36.605469 16.988281 -30.828125 C 20.386719 -25 25 -20.386719 30.828125 -16.988281 C 36.605469 -13.617188 42.980469 -11.929688 49.949219 -11.929688 C 56.371094 -11.929688 61.988281 -13.113281 66.796875 -15.476562 C 71.945312 -18.011719 76.824219 -21.757812 81.433594 -26.71875 L 113.089844 -59.675781 L 149.878906 -22.886719 C 155.160156 -17.769531 161.078125 -14.363281 167.636719 -12.664062 C 174.230469 -10.953125 180.824219 -10.953125 187.417969 -12.664062 C 193.84375 -14.328125 199.460938 -17.644531 204.269531 -22.613281 L 204.402344 -22.75 L 204.542969 -22.886719 C 209.722656 -27.90625 213.148438 -33.632812 214.816406 -40.058594 C 216.527344 -46.664062 216.523438 -53.324219 214.804688 -60.035156 C 213.136719 -66.554688 209.667969 -72.363281 204.40625 -77.464844 L 167.757812 -114.109375 L 201.222656 -148.421875 C 206.480469 -153.679688 209.949219 -159.550781 211.632812 -166.046875 C 213.34375 -172.640625 213.34375 -179.234375 211.632812 -185.828125 C 209.96875 -192.253906 206.542969 -197.980469 201.359375 -203 L 201.222656 -203.132812 L 201.085938 -203.273438 C 196.28125 -208.242188 190.664062 -211.558594 184.238281 -213.222656 C 177.644531 -214.933594 171.050781 -214.933594 164.457031 -213.222656 C 157.894531 -211.523438 151.976562 -208.117188 146.695312 -203 Z M 146.832031 -203.132812 "/></g></g></g><g fill="#004d2b" fill-opacity="1"><g transform="translate(737.580368, 1237.896905)"><g><path d="M 71.484375 -162.445312 C 78.972656 -171.070312 86.777344 -178.582031 94.898438 -184.988281 C 104.691406 -192.710938 114.847656 -196.425781 125.363281 -196.136719 L 125.03125 -184.207031 L 125.03125 -196.140625 C 135.269531 -196.140625 145.089844 -192.339844 154.488281 -184.734375 C 162.242188 -178.460938 169.851562 -171.03125 177.308594 -162.445312 L 177.429688 -162.304688 L 187.410156 -150.074219 L 178.164062 -142.53125 L 185.324219 -152.074219 C 184.304688 -152.839844 183.109375 -153.359375 181.738281 -153.632812 C 179.710938 -154.039062 177.75 -153.835938 175.851562 -153.019531 C 174.390625 -152.394531 173.117188 -151.464844 172.03125 -150.234375 C 170.410156 -148.398438 169.488281 -146.253906 169.265625 -143.808594 C 169.015625 -141.054688 169.648438 -138.667969 171.164062 -136.644531 L 137.152344 -183.148438 L 137.675781 -187.773438 C 139.574219 -204.585938 146.71875 -217.148438 159.113281 -225.457031 C 170.453125 -233.058594 183.484375 -236.863281 198.207031 -236.863281 C 209.097656 -236.863281 219.304688 -234.019531 228.824219 -228.335938 C 238.105469 -222.789062 245.644531 -215.386719 251.433594 -206.121094 C 257.414062 -196.550781 260.40625 -185.960938 260.40625 -174.347656 L 260.40625 -48.359375 C 260.40625 -36.859375 257.734375 -26.570312 252.394531 -17.492188 C 247.175781 -8.617188 240.300781 -1.492188 231.773438 3.886719 C 223.359375 9.195312 214.230469 12.433594 204.382812 13.597656 C 194.34375 14.785156 184.46875 13.480469 174.765625 9.675781 C 164.949219 5.832031 156.304688 -0.734375 148.828125 -10.015625 L 115.296875 -53.125 L 124.714844 -60.449219 L 134.03125 -52.996094 L 99.671875 -10.046875 C 92.445312 -0.753906 83.828125 5.824219 73.820312 9.695312 C 64.023438 13.484375 54.113281 14.785156 44.09375 13.597656 C 34.246094 12.433594 25.117188 9.195312 16.699219 3.886719 C 8.175781 -1.492188 1.300781 -8.617188 -3.921875 -17.492188 C -9.261719 -26.570312 -11.929688 -36.859375 -11.929688 -48.359375 L -11.929688 -174.347656 C -11.929688 -185.960938 -8.941406 -196.550781 -2.957031 -206.121094 C 2.84375 -215.40625 10.457031 -222.824219 19.875 -228.371094 C 29.484375 -234.03125 39.617188 -236.863281 50.269531 -236.863281 C 65.222656 -236.863281 78.328125 -233.046875 89.574219 -225.421875 C 101.828125 -217.109375 108.90625 -204.5625 110.800781 -187.773438 L 111.320312 -183.148438 L 77.394531 -136.761719 L 67.765625 -143.804688 L 77.691406 -137.1875 C 79.308594 -139.609375 79.820312 -142.304688 79.226562 -145.269531 C 78.632812 -148.234375 77.125 -150.523438 74.703125 -152.140625 C 72.402344 -153.671875 69.863281 -154.207031 67.078125 -153.742188 C 64.882812 -153.375 63.039062 -152.453125 61.558594 -150.96875 L 69.992188 -142.53125 L 60.984375 -150.355469 Z M 89.5 -146.796875 L 78.726562 -134.390625 L 78.429688 -134.09375 C 76.308594 -131.972656 73.832031 -130.679688 71 -130.207031 C 67.578125 -129.636719 64.402344 -130.328125 61.464844 -132.285156 C 58.40625 -134.324219 56.527344 -137.09375 55.828125 -140.589844 C 55.128906 -144.085938 55.800781 -147.363281 57.839844 -150.421875 L 57.984375 -150.636719 L 89.316406 -193.480469 L 98.945312 -186.4375 L 87.089844 -185.097656 C 86.015625 -194.609375 82.378906 -201.46875 76.183594 -205.671875 C 68.976562 -210.558594 60.339844 -213 50.269531 -213 C 43.953125 -213 37.859375 -211.273438 31.984375 -207.8125 C 25.917969 -204.238281 21.015625 -199.460938 17.277344 -193.476562 C 13.710938 -187.773438 11.929688 -181.398438 11.929688 -174.347656 L 11.929688 -48.359375 C 11.929688 -41.191406 13.503906 -34.9375 16.644531 -29.59375 C 19.910156 -24.046875 24.171875 -19.613281 29.429688 -16.292969 C 34.800781 -12.90625 40.625 -10.839844 46.898438 -10.097656 C 52.996094 -9.375 59.101562 -10.195312 65.214844 -12.558594 C 71.109375 -14.839844 76.386719 -18.96875 81.039062 -24.953125 L 124.847656 -79.710938 L 167.410156 -24.984375 C 172.238281 -18.992188 177.589844 -14.84375 183.472656 -12.539062 C 189.460938 -10.191406 195.496094 -9.378906 201.578125 -10.097656 C 207.851562 -10.839844 213.671875 -12.90625 219.042969 -16.292969 C 224.304688 -19.613281 228.566406 -24.046875 231.828125 -29.59375 C 234.972656 -34.9375 236.542969 -41.191406 236.542969 -48.359375 L 236.542969 -174.347656 C 236.542969 -181.398438 234.761719 -187.773438 231.199219 -193.476562 C 227.445312 -199.480469 222.574219 -204.273438 216.585938 -207.847656 C 210.835938 -211.285156 204.710938 -213 198.207031 -213 C 188.324219 -213 179.722656 -210.546875 172.398438 -205.636719 C 166.128906 -201.433594 162.457031 -194.585938 161.386719 -185.097656 L 149.53125 -186.4375 L 159.160156 -193.480469 L 190.253906 -150.960938 C 192.40625 -148.089844 193.332031 -144.988281 193.027344 -141.648438 C 192.78125 -138.914062 191.746094 -136.511719 189.921875 -134.449219 C 188.640625 -132.992188 187.082031 -131.871094 185.25 -131.089844 C 182.609375 -129.957031 179.878906 -129.671875 177.058594 -130.234375 C 174.890625 -130.667969 172.875 -131.585938 171.003906 -132.988281 L 169.839844 -133.859375 L 159.058594 -147.078125 L 168.300781 -154.621094 L 159.292969 -146.796875 C 152.753906 -154.328125 146.148438 -160.792969 139.484375 -166.183594 C 134.457031 -170.246094 129.640625 -172.277344 125.03125 -172.277344 L 124.867188 -172.277344 L 124.703125 -172.28125 C 119.949219 -172.414062 114.9375 -170.402344 109.671875 -166.25 C 102.734375 -160.777344 96.007812 -154.292969 89.5 -146.796875 Z M 89.5 -146.796875 "/></g></g></g><g fill="#1e9a63" fill-opacity="1"><g transform="translate(503.740536, 1237.896905)"><g><path d="M 138.390625 -211.578125 C 145.179688 -218.148438 152.867188 -222.550781 161.453125 -224.78125 C 170.046875 -227.007812 178.640625 -227.007812 187.234375 -224.78125 C 195.828125 -222.550781 203.304688 -218.148438 209.671875 -211.578125 C 216.453125 -205.003906 220.957031 -197.421875 223.1875 -188.828125 C 225.414062 -180.234375 225.414062 -171.640625 223.1875 -163.046875 C 220.957031 -154.460938 216.453125 -146.773438 209.671875 -139.984375 L 184.53125 -114.21875 L 212.84375 -85.90625 C 219.632812 -79.332031 224.140625 -71.695312 226.359375 -63 C 228.585938 -54.300781 228.585938 -45.65625 226.359375 -37.0625 C 224.140625 -28.476562 219.632812 -20.894531 212.84375 -14.3125 C 206.476562 -7.738281 199 -3.335938 190.40625 -1.109375 C 181.820312 1.117188 173.234375 1.117188 164.640625 -1.109375 C 156.054688 -3.335938 148.367188 -7.738281 141.578125 -14.3125 L 113.265625 -42.640625 L 90.03125 -18.453125 C 84.519531 -12.515625 78.53125 -7.953125 72.0625 -4.765625 C 65.59375 -1.585938 58.222656 0 49.953125 0 C 40.828125 0 32.445312 -2.222656 24.8125 -6.671875 C 17.175781 -11.128906 11.128906 -17.175781 6.671875 -24.8125 C 2.222656 -32.445312 0 -40.828125 0 -49.953125 L 0 -175.9375 C 0 -185.476562 2.222656 -194.066406 6.671875 -201.703125 C 11.128906 -209.347656 17.175781 -215.394531 24.8125 -219.84375 C 32.445312 -224.300781 40.828125 -226.53125 49.953125 -226.53125 C 62.460938 -226.53125 73.332031 -222.816406 82.5625 -215.390625 C 91.789062 -207.960938 97.78125 -198.523438 100.53125 -187.078125 L 82.078125 -160.671875 C 81.867188 -159.816406 82.132812 -159.019531 82.875 -158.28125 C 83.625 -157.539062 84.421875 -157.59375 85.265625 -158.4375 Z M 138.390625 -211.578125 "/></g></g></g><g fill="#1e9a63" fill-opacity="1"><g transform="translate(737.580368, 1237.896905)"><g><path d="M 80.5 -154.625 C 87.5 -162.6875 94.757812 -169.6875 102.28125 -175.625 C 109.8125 -181.5625 117.394531 -184.425781 125.03125 -184.21875 C 132.457031 -184.21875 139.773438 -181.300781 146.984375 -175.46875 C 154.203125 -169.632812 161.304688 -162.6875 168.296875 -154.625 L 178.171875 -142.53125 C 179.015625 -141.894531 179.804688 -141.734375 180.546875 -142.046875 C 181.296875 -142.367188 181.351562 -142.957031 180.71875 -143.8125 L 149.53125 -186.4375 C 151.019531 -199.59375 156.429688 -209.296875 165.765625 -215.546875 C 175.097656 -221.804688 185.914062 -224.9375 198.21875 -224.9375 C 206.90625 -224.9375 215.066406 -222.65625 222.703125 -218.09375 C 230.335938 -213.53125 236.539062 -207.429688 241.3125 -199.796875 C 246.09375 -192.160156 248.484375 -183.675781 248.484375 -174.34375 L 248.484375 -48.359375 C 248.484375 -39.023438 246.359375 -30.75 242.109375 -23.53125 C 237.867188 -16.320312 232.300781 -10.546875 225.40625 -6.203125 C 218.519531 -1.859375 211.046875 0.789062 202.984375 1.75 C 194.921875 2.707031 186.960938 1.648438 179.109375 -1.421875 C 171.265625 -4.503906 164.269531 -9.863281 158.125 -17.5 L 124.71875 -60.453125 L 90.359375 -17.5 C 84.421875 -9.863281 77.472656 -4.503906 69.515625 -1.421875 C 61.566406 1.648438 53.5625 2.707031 45.5 1.75 C 37.4375 0.789062 29.957031 -1.859375 23.0625 -6.203125 C 16.164062 -10.546875 10.597656 -16.320312 6.359375 -23.53125 C 2.117188 -30.75 0 -39.023438 0 -48.359375 L 0 -174.34375 C 0 -183.675781 2.382812 -192.160156 7.15625 -199.796875 C 11.925781 -207.429688 18.179688 -213.53125 25.921875 -218.09375 C 33.671875 -222.65625 41.785156 -224.9375 50.265625 -224.9375 C 62.785156 -224.9375 73.65625 -221.804688 82.875 -215.546875 C 92.101562 -209.296875 97.460938 -199.59375 98.953125 -186.4375 L 67.765625 -143.8125 C 67.335938 -143.175781 67.441406 -142.644531 68.078125 -142.21875 C 68.722656 -141.789062 69.363281 -141.894531 70 -142.53125 Z M 80.5 -154.625 "/></g></g></g><g fill="#fb8cac" fill-opacity="1"><g transform="translate(626.742332, 1367.386158)"><g><path d="M 31.046875 -46.890625 C 33.023438 -46.890625 34.816406 -46.40625 36.421875 -45.4375 C 38.023438 -44.46875 39.300781 -43.179688 40.25 -41.578125 C 41.195312 -39.972656 41.671875 -38.203125 41.671875 -36.265625 C 41.671875 -34.367188 41.207031 -32.640625 40.28125 -31.078125 C 39.363281 -29.515625 38.125 -28.25 36.5625 -27.28125 C 35 -26.3125 33.222656 -25.828125 31.234375 -25.828125 L 31.3125 -10.4375 C 31.3125 -8.5 30.828125 -6.710938 29.859375 -5.078125 C 28.890625 -3.453125 27.597656 -2.15625 25.984375 -1.1875 C 24.378906 -0.21875 22.609375 0.265625 20.671875 0.265625 C 18.773438 0.265625 17.035156 -0.21875 15.453125 -1.1875 C 13.867188 -2.15625 12.601562 -3.453125 11.65625 -5.078125 C 10.707031 -6.710938 10.234375 -8.5 10.234375 -10.4375 L 10.234375 -25.828125 C 8.296875 -25.828125 6.535156 -26.3125 4.953125 -27.28125 C 3.367188 -28.25 2.113281 -29.515625 1.1875 -31.078125 C 0.257812 -32.640625 -0.203125 -34.367188 -0.203125 -36.265625 C -0.203125 -38.203125 0.257812 -39.972656 1.1875 -41.578125 C 2.113281 -43.179688 3.367188 -44.46875 4.953125 -45.4375 C 6.535156 -46.40625 8.296875 -46.890625 10.234375 -46.890625 Z M 31.046875 -46.890625 "/></g></g></g><g fill="#fb8cac" fill-opacity="1"><g transform="translate(690.743604, 1367.386158)"><g><path d="M 5.75 -0.859375 C 4.03125 -1.691406 2.648438 -2.867188 1.609375 -4.390625 C 0.578125 -5.910156 -0.0078125 -7.582031 -0.15625 -9.40625 C -0.3125 -11.238281 0.00390625 -12.988281 0.796875 -14.65625 L 13.28125 -41.140625 C 14.195312 -43.128906 15.515625 -44.628906 17.234375 -45.640625 C 18.953125 -46.648438 20.789062 -47.164062 22.75 -47.1875 C 24.707031 -47.207031 26.546875 -46.722656 28.265625 -45.734375 C 29.984375 -44.742188 31.328125 -43.238281 32.296875 -41.21875 L 44.90625 -14.65625 C 45.75 -12.988281 46.082031 -11.238281 45.90625 -9.40625 C 45.726562 -7.582031 45.128906 -5.910156 44.109375 -4.390625 C 43.097656 -2.867188 41.710938 -1.691406 39.953125 -0.859375 C 38.234375 -0.0664062 36.445312 0.25 34.59375 0.09375 C 32.75 -0.0507812 31.078125 -0.640625 29.578125 -1.671875 C 28.085938 -2.710938 26.925781 -4.09375 26.09375 -5.8125 L 20.40625 -17.765625 C 20.363281 -17.898438 20.253906 -17.941406 20.078125 -17.890625 C 19.898438 -17.847656 19.832031 -17.71875 19.875 -17.5 L 21.65625 -10.109375 L 19.6875 -5.8125 C 18.84375 -4.09375 17.660156 -2.710938 16.140625 -1.671875 C 14.628906 -0.640625 12.957031 -0.0507812 11.125 0.09375 C 9.300781 0.25 7.507812 -0.0664062 5.75 -0.859375 Z M 5.75 -0.859375 "/></g></g></g><g fill="#fb8cac" fill-opacity="1"><g transform="translate(759.434195, 1367.386158)"><g><path d="M 41.9375 -36.53125 C 41.9375 -34.8125 41.539062 -33.253906 40.75 -31.859375 C 39.957031 -30.472656 38.789062 -29.382812 37.25 -28.59375 C 36.144531 -29.207031 34.960938 -29.691406 33.703125 -30.046875 C 32.453125 -30.398438 31.171875 -30.625 29.859375 -30.71875 C 29.585938 -30.71875 29.421875 -30.59375 29.359375 -30.34375 C 29.296875 -30.101562 29.394531 -29.941406 29.65625 -29.859375 C 32.601562 -29.191406 35.007812 -28 36.875 -26.28125 C 38.75 -24.5625 40.082031 -22.566406 40.875 -20.296875 C 41.675781 -18.035156 41.953125 -15.726562 41.703125 -13.375 C 41.460938 -11.019531 40.671875 -8.816406 39.328125 -6.765625 C 37.984375 -4.722656 36.097656 -3.070312 33.671875 -1.8125 C 31.253906 -0.5625 28.304688 0.0625 24.828125 0.0625 L 10.375 0.0625 C 8.476562 0.0625 6.738281 -0.484375 5.15625 -1.578125 C 3.570312 -2.679688 2.296875 -4.054688 1.328125 -5.703125 C 0.359375 -7.359375 -0.125 -8.957031 -0.125 -10.5 C -0.125 -12.300781 0.203125 -13.875 0.859375 -15.21875 C 1.515625 -16.5625 2.570312 -17.765625 4.03125 -18.828125 C 5.300781 -17.984375 6.75 -17.34375 8.375 -16.90625 C 10.007812 -16.46875 11.597656 -16.25 13.140625 -16.25 C 13.410156 -16.25 13.566406 -16.367188 13.609375 -16.609375 C 13.648438 -16.847656 13.539062 -17.015625 13.28125 -17.109375 C 12.351562 -17.191406 11.425781 -17.382812 10.5 -17.6875 C 9.570312 -18 8.671875 -18.378906 7.796875 -18.828125 C 5.640625 -19.972656 3.921875 -21.445312 2.640625 -23.25 C 1.359375 -25.050781 0.53125 -27.019531 0.15625 -29.15625 C -0.207031 -31.289062 -0.140625 -33.414062 0.359375 -35.53125 C 0.867188 -37.644531 1.816406 -39.570312 3.203125 -41.3125 C 4.585938 -43.050781 6.425781 -44.4375 8.71875 -45.46875 C 11.007812 -46.507812 13.738281 -47.003906 16.90625 -46.953125 L 31.234375 -46.953125 C 33.222656 -46.953125 35.019531 -46.488281 36.625 -45.5625 C 38.226562 -44.644531 39.515625 -43.394531 40.484375 -41.8125 C 41.453125 -40.226562 41.9375 -38.46875 41.9375 -36.53125 Z M 41.9375 -36.53125 "/></g></g></g><g fill="#fb8cac" fill-opacity="1"><g transform="translate(824.690358, 1367.386158)"><g><path d="M 28.734375 -43.921875 C 30.140625 -45.285156 31.734375 -46.195312 33.515625 -46.65625 C 35.296875 -47.125 37.078125 -47.125 38.859375 -46.65625 C 40.648438 -46.195312 42.207031 -45.285156 43.53125 -43.921875 C 44.9375 -42.554688 45.867188 -40.984375 46.328125 -39.203125 C 46.796875 -37.421875 46.796875 -35.632812 46.328125 -33.84375 C 45.867188 -32.0625 44.9375 -30.46875 43.53125 -29.0625 L 38.3125 -23.703125 L 44.1875 -17.828125 C 45.59375 -16.460938 46.523438 -14.878906 46.984375 -13.078125 C 47.453125 -11.273438 47.453125 -9.476562 46.984375 -7.6875 C 46.523438 -5.90625 45.59375 -4.332031 44.1875 -2.96875 C 42.863281 -1.601562 41.3125 -0.6875 39.53125 -0.21875 C 37.75 0.238281 35.960938 0.238281 34.171875 -0.21875 C 32.390625 -0.6875 30.796875 -1.601562 29.390625 -2.96875 L 23.515625 -8.84375 L 18.6875 -3.828125 C 17.539062 -2.597656 16.296875 -1.648438 14.953125 -0.984375 C 13.609375 -0.328125 12.082031 0 10.375 0 C 8.476562 0 6.738281 -0.460938 5.15625 -1.390625 C 3.570312 -2.316406 2.316406 -3.570312 1.390625 -5.15625 C 0.460938 -6.738281 0 -8.476562 0 -10.375 L 0 -36.53125 C 0 -38.507812 0.460938 -40.289062 1.390625 -41.875 C 2.316406 -43.457031 3.570312 -44.710938 5.15625 -45.640625 C 6.738281 -46.566406 8.476562 -47.03125 10.375 -47.03125 C 12.96875 -47.03125 15.222656 -46.257812 17.140625 -44.71875 C 19.054688 -43.175781 20.300781 -41.210938 20.875 -38.828125 L 17.046875 -33.359375 C 16.992188 -33.179688 17.046875 -33.015625 17.203125 -32.859375 C 17.359375 -32.703125 17.523438 -32.710938 17.703125 -32.890625 Z M 28.734375 -43.921875 "/></g></g></g><g fill="#fb8cac" fill-opacity="1"><g transform="translate(521.894685, 1436.386152)"><g><path d="M 34.609375 -14.0625 C 33.242188 -12.4375 31.769531 -11.003906 30.1875 -9.765625 C 28.601562 -8.535156 27.039062 -7.941406 25.5 -7.984375 C 24 -7.984375 22.488281 -8.585938 20.96875 -9.796875 C 19.445312 -11.015625 17.984375 -12.4375 16.578125 -14.0625 L 14.53125 -16.578125 C 14.394531 -16.710938 14.25 -16.742188 14.09375 -16.671875 C 13.945312 -16.609375 13.9375 -16.488281 14.0625 -16.3125 L 20.46875 -7.53125 C 20.164062 -4.84375 19.046875 -2.847656 17.109375 -1.546875 C 15.171875 -0.253906 12.925781 0.390625 10.375 0.390625 C 8.613281 0.390625 6.945312 -0.078125 5.375 -1.015625 C 3.8125 -1.960938 2.535156 -3.21875 1.546875 -4.78125 C 0.554688 -6.351562 0.0625 -8.082031 0.0625 -9.96875 L 0.0625 -36 C 0.0625 -37.9375 0.5 -39.640625 1.375 -41.109375 C 2.257812 -42.585938 3.40625 -43.773438 4.8125 -44.671875 C 6.226562 -45.578125 7.769531 -46.128906 9.4375 -46.328125 C 11.113281 -46.523438 12.765625 -46.304688 14.390625 -45.671875 C 16.023438 -45.035156 17.457031 -43.925781 18.6875 -42.34375 L 25.5625 -33.484375 L 32.625 -42.34375 C 33.90625 -43.925781 35.347656 -45.035156 36.953125 -45.671875 C 38.554688 -46.304688 40.195312 -46.523438 41.875 -46.328125 C 43.550781 -46.128906 45.09375 -45.578125 46.5 -44.671875 C 47.90625 -43.773438 49.046875 -42.585938 49.921875 -41.109375 C 50.804688 -39.640625 51.25 -37.9375 51.25 -36 L 51.25 -9.96875 C 51.25 -8.082031 50.753906 -6.351562 49.765625 -4.78125 C 48.773438 -3.21875 47.5 -1.960938 45.9375 -1.015625 C 44.375 -0.078125 42.710938 0.390625 40.953125 0.390625 C 38.398438 0.390625 36.15625 -0.253906 34.21875 -1.546875 C 32.28125 -2.847656 31.15625 -4.84375 30.84375 -7.53125 L 37.25 -16.3125 C 37.332031 -16.445312 37.304688 -16.554688 37.171875 -16.640625 C 37.046875 -16.734375 36.914062 -16.710938 36.78125 -16.578125 Z M 34.609375 -14.0625 "/></g></g></g><g fill="#fb8cac" fill-opacity="1"><g transform="translate(596.463454, 1436.386152)"><g><path d="M 5.75 -0.859375 C 4.03125 -1.691406 2.648438 -2.867188 1.609375 -4.390625 C 0.578125 -5.910156 -0.0078125 -7.582031 -0.15625 -9.40625 C -0.3125 -11.238281 0.00390625 -12.988281 0.796875 -14.65625 L 13.28125 -41.140625 C 14.195312 -43.128906 15.515625 -44.628906 17.234375 -45.640625 C 18.953125 -46.648438 20.789062 -47.164062 22.75 -47.1875 C 24.707031 -47.207031 26.546875 -46.722656 28.265625 -45.734375 C 29.984375 -44.742188 31.328125 -43.238281 32.296875 -41.21875 L 44.90625 -14.65625 C 45.75 -12.988281 46.082031 -11.238281 45.90625 -9.40625 C 45.726562 -7.582031 45.128906 -5.910156 44.109375 -4.390625 C 43.097656 -2.867188 41.710938 -1.691406 39.953125 -0.859375 C 38.234375 -0.0664062 36.445312 0.25 34.59375 0.09375 C 32.75 -0.0507812 31.078125 -0.640625 29.578125 -1.671875 C 28.085938 -2.710938 26.925781 -4.09375 26.09375 -5.8125 L 20.40625 -17.765625 C 20.363281 -17.898438 20.253906 -17.941406 20.078125 -17.890625 C 19.898438 -17.847656 19.832031 -17.71875 19.875 -17.5 L 21.65625 -10.109375 L 19.6875 -5.8125 C 18.84375 -4.09375 17.660156 -2.710938 16.140625 -1.671875 C 14.628906 -0.640625 12.957031 -0.0507812 11.125 0.09375 C 9.300781 0.25 7.507812 -0.0664062 5.75 -0.859375 Z M 5.75 -0.859375 "/></g></g></g><g fill="#fb8cac" fill-opacity="1"><g transform="translate(665.154045, 1436.386152)"><g><path d="M 46.890625 -10.4375 C 46.890625 -8.40625 46.472656 -6.648438 45.640625 -5.171875 C 44.804688 -3.703125 43.703125 -2.550781 42.328125 -1.71875 C 40.960938 -0.882812 39.476562 -0.367188 37.875 -0.171875 C 36.269531 0.0234375 34.6875 -0.113281 33.125 -0.59375 C 31.5625 -1.082031 30.1875 -1.921875 29 -3.109375 C 27.0625 -4.992188 25.144531 -6.847656 23.25 -8.671875 C 21.351562 -10.503906 19.484375 -12.390625 17.640625 -14.328125 C 17.546875 -14.546875 17.398438 -14.546875 17.203125 -14.328125 C 17.003906 -14.109375 16.953125 -13.890625 17.046875 -13.671875 L 20.8125 -7.859375 C 20.320312 -5.566406 19.109375 -3.660156 17.171875 -2.140625 C 15.234375 -0.628906 13.03125 0.125 10.5625 0.125 C 8.625 0.125 6.851562 -0.34375 5.25 -1.28125 C 3.644531 -2.226562 2.367188 -3.492188 1.421875 -5.078125 C 0.472656 -6.671875 0 -8.457031 0 -10.4375 L 0 -36.453125 C 0 -38.390625 0.472656 -40.148438 1.421875 -41.734375 C 2.367188 -43.328125 3.644531 -44.609375 5.25 -45.578125 C 6.851562 -46.546875 8.625 -47.03125 10.5625 -47.03125 C 12.144531 -47.03125 13.640625 -46.664062 15.046875 -45.9375 C 16.460938 -45.207031 17.65625 -44.335938 18.625 -43.328125 L 29.390625 -32.765625 C 29.472656 -32.585938 29.613281 -32.5625 29.8125 -32.6875 C 30.019531 -32.820312 30.078125 -32.976562 29.984375 -33.15625 L 26.09375 -38.828125 C 26.4375 -40.328125 27.09375 -41.691406 28.0625 -42.921875 C 29.03125 -44.160156 30.226562 -45.15625 31.65625 -45.90625 C 33.09375 -46.65625 34.628906 -47.03125 36.265625 -47.03125 C 38.242188 -47.03125 40.035156 -46.546875 41.640625 -45.578125 C 43.242188 -44.609375 44.519531 -43.328125 45.46875 -41.734375 C 46.414062 -40.148438 46.890625 -38.390625 46.890625 -36.453125 Z M 46.890625 -10.4375 "/></g></g></g><g fill="#fb8cac" fill-opacity="1"><g transform="translate(735.363737, 1436.386152)"><g><path d="M 5.75 -0.859375 C 4.03125 -1.691406 2.648438 -2.867188 1.609375 -4.390625 C 0.578125 -5.910156 -0.0078125 -7.582031 -0.15625 -9.40625 C -0.3125 -11.238281 0.00390625 -12.988281 0.796875 -14.65625 L 13.28125 -41.140625 C 14.195312 -43.128906 15.515625 -44.628906 17.234375 -45.640625 C 18.953125 -46.648438 20.789062 -47.164062 22.75 -47.1875 C 24.707031 -47.207031 26.546875 -46.722656 28.265625 -45.734375 C 29.984375 -44.742188 31.328125 -43.238281 32.296875 -41.21875 L 44.90625 -14.65625 C 45.75 -12.988281 46.082031 -11.238281 45.90625 -9.40625 C 45.726562 -7.582031 45.128906 -5.910156 44.109375 -4.390625 C 43.097656 -2.867188 41.710938 -1.691406 39.953125 -0.859375 C 38.234375 -0.0664062 36.445312 0.25 34.59375 0.09375 C 32.75 -0.0507812 31.078125 -0.640625 29.578125 -1.671875 C 28.085938 -2.710938 26.925781 -4.09375 26.09375 -5.8125 L 20.40625 -17.765625 C 20.363281 -17.898438 20.253906 -17.941406 20.078125 -17.890625 C 19.898438 -17.847656 19.832031 -17.71875 19.875 -17.5 L 21.65625 -10.109375 L 19.6875 -5.8125 C 18.84375 -4.09375 17.660156 -2.710938 16.140625 -1.671875 C 14.628906 -0.640625 12.957031 -0.0507812 11.125 0.09375 C 9.300781 0.25 7.507812 -0.0664062 5.75 -0.859375 Z M 5.75 -0.859375 "/></g></g></g><g fill="#fb8cac" fill-opacity="1"><g transform="translate(804.054328, 1436.386152)"><g><path d="M -0.125 -23.640625 C -0.125 -26.941406 0.5 -30 1.75 -32.8125 C 3 -35.632812 4.722656 -38.101562 6.921875 -40.21875 C 9.128906 -42.332031 11.6875 -43.972656 14.59375 -45.140625 C 17.5 -46.304688 20.582031 -46.890625 23.84375 -46.890625 L 33.03125 -46.890625 C 34.957031 -46.890625 36.722656 -46.4375 38.328125 -45.53125 C 39.941406 -44.632812 41.222656 -43.414062 42.171875 -41.875 C 43.117188 -40.332031 43.59375 -38.632812 43.59375 -36.78125 C 43.59375 -34.28125 42.910156 -32.144531 41.546875 -30.375 C 40.179688 -28.613281 38.421875 -27.40625 36.265625 -26.75 C 35.992188 -26.75 35.859375 -26.640625 35.859375 -26.421875 C 35.859375 -26.203125 35.992188 -26.023438 36.265625 -25.890625 C 38.328125 -25.273438 40.03125 -24.050781 41.375 -22.21875 C 42.71875 -20.394531 43.390625 -18.296875 43.390625 -15.921875 L 43.390625 -10.375 C 43.390625 -8.613281 42.882812 -6.945312 41.875 -5.375 C 40.863281 -3.8125 39.578125 -2.535156 38.015625 -1.546875 C 36.453125 -0.554688 34.789062 -0.0625 33.03125 -0.0625 L 23.640625 -0.0625 C 20.378906 -0.0625 17.304688 -0.664062 14.421875 -1.875 C 11.546875 -3.09375 9.015625 -4.78125 6.828125 -6.9375 C 4.648438 -9.09375 2.945312 -11.585938 1.71875 -14.421875 C 0.488281 -17.265625 -0.125 -20.335938 -0.125 -23.640625 Z M 22.59375 -18.6875 C 22.59375 -18.46875 22.710938 -18.320312 22.953125 -18.25 C 23.191406 -18.1875 23.378906 -18.289062 23.515625 -18.5625 C 24.085938 -20.101562 24.878906 -21.476562 25.890625 -22.6875 C 26.898438 -23.894531 28.15625 -24.804688 29.65625 -25.421875 C 29.914062 -25.515625 30.015625 -25.671875 29.953125 -25.890625 C 29.890625 -26.109375 29.742188 -26.21875 29.515625 -26.21875 L 25.234375 -26.21875 C 24.390625 -26.21875 23.738281 -25.960938 23.28125 -25.453125 C 22.820312 -24.953125 22.59375 -24.285156 22.59375 -23.453125 Z M 22.59375 -18.6875 "/></g></g></g><g fill="#fb8cac" fill-opacity="1"><g transform="translate(870.76349, 1436.386152)"><g><path d="M 0 -36.328125 C 0 -38.304688 0.445312 -40.097656 1.34375 -41.703125 C 2.25 -43.316406 3.503906 -44.59375 5.109375 -45.53125 C 6.722656 -46.476562 8.566406 -46.953125 10.640625 -46.953125 L 27.875 -46.953125 C 29.9375 -46.953125 31.75 -46.4375 33.3125 -45.40625 C 34.882812 -44.375 36.085938 -43.03125 36.921875 -41.375 C 37.753906 -39.726562 38.160156 -37.96875 38.140625 -36.09375 C 38.117188 -34.21875 37.582031 -32.445312 36.53125 -30.78125 C 35.46875 -29.0625 34.164062 -27.859375 32.625 -27.171875 C 31.082031 -26.492188 29.320312 -26.109375 27.34375 -26.015625 C 27.125 -26.015625 27.015625 -25.894531 27.015625 -25.65625 C 27.015625 -25.414062 27.125 -25.25 27.34375 -25.15625 C 29.144531 -24.9375 30.90625 -25.054688 32.625 -25.515625 C 34.34375 -25.984375 35.863281 -26.898438 37.1875 -28.265625 C 38.0625 -26.328125 38.34375 -24.222656 38.03125 -21.953125 C 37.726562 -19.691406 36.851562 -17.832031 35.40625 -16.375 C 34.4375 -15.28125 33.3125 -14.5 32.03125 -14.03125 C 30.757812 -13.570312 29.414062 -13.253906 28 -13.078125 C 27.78125 -13.078125 27.671875 -12.941406 27.671875 -12.671875 C 27.671875 -12.410156 27.78125 -12.28125 28 -12.28125 C 29.71875 -12.101562 31.390625 -12.234375 33.015625 -12.671875 C 34.648438 -13.117188 36.082031 -14.066406 37.3125 -15.515625 C 37.664062 -14.941406 37.921875 -14.300781 38.078125 -13.59375 C 38.234375 -12.894531 38.3125 -11.84375 38.3125 -10.4375 C 38.3125 -9.425781 38.113281 -8.3125 37.71875 -7.09375 C 37.320312 -5.882812 36.691406 -4.738281 35.828125 -3.65625 C 34.972656 -2.582031 33.894531 -1.703125 32.59375 -1.015625 C 31.289062 -0.335938 29.71875 0 27.875 0 L 10.5 0 C 8.5625 0 6.789062 -0.472656 5.1875 -1.421875 C 3.582031 -2.367188 2.316406 -3.632812 1.390625 -5.21875 C 0.460938 -6.800781 0 -8.539062 0 -10.4375 Z M 0 -36.328125 "/></g></g></g><g fill="#fb8cac" fill-opacity="1"><g transform="translate(931.92474, 1436.386152)"><g><path d="M 10.4375 0.125 C 8.539062 0.125 6.800781 -0.359375 5.21875 -1.328125 C 3.632812 -2.296875 2.359375 -3.59375 1.390625 -5.21875 C 0.421875 -6.84375 -0.0625 -8.625 -0.0625 -10.5625 L -0.0625 -36.453125 C -0.0625 -38.390625 0.421875 -40.148438 1.390625 -41.734375 C 2.359375 -43.328125 3.65625 -44.582031 5.28125 -45.5 C 6.914062 -46.425781 8.703125 -46.890625 10.640625 -46.890625 L 25.421875 -46.890625 C 28.023438 -46.890625 30.457031 -46.40625 32.71875 -45.4375 C 34.988281 -44.46875 36.984375 -43.125 38.703125 -41.40625 C 40.421875 -39.6875 41.765625 -37.691406 42.734375 -35.421875 C 43.703125 -33.160156 44.1875 -30.734375 44.1875 -28.140625 C 44.1875 -24.921875 43.46875 -21.945312 42.03125 -19.21875 C 40.601562 -16.488281 38.632812 -14.242188 36.125 -12.484375 C 35.945312 -12.390625 35.925781 -12.234375 36.0625 -12.015625 C 36.195312 -11.796875 36.351562 -11.734375 36.53125 -11.828125 C 37.625 -12.304688 38.675781 -12.910156 39.6875 -13.640625 C 40.707031 -14.367188 41.632812 -15.21875 42.46875 -16.1875 C 43.96875 -14.070312 44.59375 -11.757812 44.34375 -9.25 C 44.101562 -6.738281 43.035156 -4.535156 41.140625 -2.640625 C 39.910156 -1.410156 38.378906 -0.53125 36.546875 0 C 34.722656 0.53125 32.921875 0.5625 31.140625 0.09375 C 29.359375 -0.363281 27.875 -1.382812 26.6875 -2.96875 L 21 -9.703125 C 20.914062 -7.859375 20.390625 -6.195312 19.421875 -4.71875 C 18.453125 -3.25 17.195312 -2.070312 15.65625 -1.1875 C 14.113281 -0.3125 12.375 0.125 10.4375 0.125 Z M 22.1875 -30.25 C 21.75 -30.25 21.351562 -30.140625 21 -29.921875 L 21 -25.421875 C 21.175781 -25.335938 21.351562 -25.285156 21.53125 -25.265625 C 21.707031 -25.242188 21.925781 -25.234375 22.1875 -25.234375 C 22.894531 -25.234375 23.46875 -25.460938 23.90625 -25.921875 C 24.34375 -26.378906 24.5625 -26.960938 24.5625 -27.671875 C 24.5625 -28.378906 24.34375 -28.984375 23.90625 -29.484375 C 23.46875 -29.992188 22.894531 -30.25 22.1875 -30.25 Z M 22.1875 -30.25 "/></g></g></g></svg>